<svg xmlns="http://www.w3.org/2000/svg" xmlns:xlink="http://www.w3.org/1999/xlink" width="536" height="554" viewBox="0 0 536 554">
  <defs>
    <clipPath id="clip-path">
      <rect id="Rectangle_469" data-name="Rectangle 469" width="536" height="554" transform="translate(691 861)" fill="#fff" stroke="#707070" stroke-width="1"/>
    </clipPath>
  </defs>
  <g id="Mask_Group_28" data-name="Mask Group 28" transform="translate(-691 -861)" clip-path="url(#clip-path)">
    <g id="Group_621" data-name="Group 621" transform="translate(-989 1053.072)">
      <g id="Group_597" data-name="Group 597" transform="translate(2019.894 100.531)">
        <rect id="Rectangle_393" data-name="Rectangle 393" width="20.825" height="282.335" rx="5.909" transform="translate(0 0)" fill="#ea372e"/>
      </g>
      <g id="Group_598" data-name="Group 598" transform="translate(1871.847 80.821)">
        <rect id="Rectangle_394" data-name="Rectangle 394" width="20.825" height="316.187" rx="6.253" fill="#563f91"/>
      </g>
      <g id="Group_599" data-name="Group 599" transform="translate(1909.609 -11.625)">
        <rect id="Rectangle_395" data-name="Rectangle 395" width="20.825" height="410.553" rx="7.087" transform="translate(0 0)" fill="#ffa600"/>
      </g>
      <g id="Group_600" data-name="Group 600" transform="translate(1769.3 -63.447)">
        <rect id="Rectangle_396" data-name="Rectangle 396" width="18.945" height="127.735" rx="3.791" transform="translate(0 18.945) rotate(-90)" fill="#ffa600"/>
      </g>
      <g id="Group_601" data-name="Group 601" transform="translate(1723.189 20.174)">
        <rect id="Rectangle_397" data-name="Rectangle 397" width="18.945" height="127.735" rx="3.791" transform="translate(0 18.945) rotate(-90)" fill="#563f91"/>
      </g>
      <g id="Group_602" data-name="Group 602" transform="translate(2060.902 57.792)">
        <rect id="Rectangle_398" data-name="Rectangle 398" width="18.945" height="66.397" rx="2.733" transform="translate(0 18.945) rotate(-90)" fill="#ea372e"/>
      </g>
      <g id="Group_603" data-name="Group 603" transform="translate(2014.75 -63.448)">
        <rect id="Rectangle_399" data-name="Rectangle 399" width="18.945" height="170.963" rx="4.385" transform="translate(0 18.945) rotate(-90)" fill="#47ae73"/>
      </g>
      <g id="Group_604" data-name="Group 604" transform="translate(1945.74 -149.198)">
        <rect id="Rectangle_400" data-name="Rectangle 400" width="20.825" height="548.126" rx="7.087" transform="translate(0 0)" fill="#284b9b"/>
      </g>
      <g id="Group_605" data-name="Group 605" transform="translate(1983.874 -20.972)">
        <rect id="Rectangle_401" data-name="Rectangle 401" width="20.825" height="408.823" rx="7.087" transform="translate(0 0)" fill="#47ae73"/>
      </g>
      <g id="Group_608" data-name="Group 608" transform="translate(1918.06 -166.302)">
        <g id="Group_606" data-name="Group 606" transform="translate(23.458 0)">
          <rect id="Rectangle_402" data-name="Rectangle 402" width="20.722" height="53.844" rx="7.053" transform="translate(0 14.653) rotate(-45)" fill="#284b9b"/>
        </g>
        <g id="Group_607" data-name="Group 607" transform="translate(0 0)">
          <rect id="Rectangle_403" data-name="Rectangle 403" width="20.722" height="53.844" rx="7.053" transform="translate(14.653 52.726) rotate(-135)" fill="#284b9b"/>
        </g>
      </g>
      <g id="Group_611" data-name="Group 611" transform="translate(1747.321 -92.067)">
        <g id="Group_609" data-name="Group 609" transform="translate(0 0)">
          <rect id="Rectangle_404" data-name="Rectangle 404" width="20.722" height="53.844" rx="7.053" transform="translate(14.653 52.726) rotate(-135)" fill="#ffa600"/>
        </g>
        <g id="Group_610" data-name="Group 610" transform="translate(0 23.458)">
          <rect id="Rectangle_405" data-name="Rectangle 405" width="20.722" height="53.844" rx="7.053" transform="translate(52.726 38.073) rotate(135)" fill="#ffa600"/>
        </g>
      </g>
      <g id="Group_614" data-name="Group 614" transform="translate(2162.274 -92.067)">
        <g id="Group_612" data-name="Group 612" transform="translate(0)">
          <rect id="Rectangle_406" data-name="Rectangle 406" width="20.722" height="53.844" rx="7.053" transform="translate(0 14.653) rotate(-45)" fill="#47ae73"/>
        </g>
        <g id="Group_613" data-name="Group 613" transform="translate(0 23.458)">
          <rect id="Rectangle_407" data-name="Rectangle 407" width="20.722" height="53.844" rx="7.053" transform="translate(38.073 0) rotate(45)" fill="#47ae73"/>
        </g>
      </g>
      <g id="Group_617" data-name="Group 617" transform="translate(2100.936 29.172)">
        <g id="Group_615" data-name="Group 615" transform="translate(0)">
          <rect id="Rectangle_408" data-name="Rectangle 408" width="20.722" height="53.844" rx="7.053" transform="translate(0 14.653) rotate(-45)" fill="#ea372e"/>
        </g>
        <g id="Group_616" data-name="Group 616" transform="translate(0 23.458)">
          <rect id="Rectangle_409" data-name="Rectangle 409" width="20.722" height="53.844" rx="7.053" transform="translate(38.073) rotate(45)" fill="#ea372e"/>
        </g>
      </g>
      <g id="Group_620" data-name="Group 620" transform="translate(1711.804 -9.37)">
        <g id="Group_618" data-name="Group 618" transform="translate(0 0)">
          <rect id="Rectangle_410" data-name="Rectangle 410" width="20.722" height="53.844" rx="7.053" transform="translate(14.653 52.726) rotate(-135)" fill="#563f91"/>
        </g>
        <g id="Group_619" data-name="Group 619" transform="translate(0 23.458)">
          <rect id="Rectangle_411" data-name="Rectangle 411" width="20.722" height="53.844" rx="7.053" transform="translate(52.726 38.073) rotate(135)" fill="#563f91"/>
        </g>
      </g>
      <path id="Path_1664" data-name="Path 1664" d="M129.288,362.118a50.44,50.44,0,0,0-7.177.5A8.925,8.925,0,0,0,114.784,374v0a10.342,10.342,0,0,0,11.362,7.191,25.427,25.427,0,0,1,3.313-.211c13.933,0,22.846,12.236,22.848,24.81v31.392A10.443,10.443,0,0,0,162.719,447.6h0a10.443,10.443,0,0,0,10.412-10.413V405.792C173.131,381.832,155.968,362.118,129.288,362.118Z" transform="translate(1719.541 -341.944)" fill="#563f91"/>
      <path id="Path_1665" data-name="Path 1665" d="M284.82,387.724a50.46,50.46,0,0,1,7.178.5,8.926,8.926,0,0,1,7.327,11.38h0a10.343,10.343,0,0,1-11.364,7.191,25.657,25.657,0,0,0-3.311-.21c-13.935,0-22.848,12.235-22.848,24.811V462.79A10.442,10.442,0,0,1,251.389,473.2h0a10.442,10.442,0,0,1-10.412-10.412V431.4C240.977,407.438,258.139,387.724,284.82,387.724Z" transform="translate(1778.917 -329.932)" fill="#ea372e"/>
      <path id="Path_1666" data-name="Path 1666" d="M260.3,305.019a50.456,50.456,0,0,1,7.177.5,8.926,8.926,0,0,1,7.326,11.38h0a10.345,10.345,0,0,1-11.364,7.193,25.376,25.376,0,0,0-3.311-.212c-13.935,0-22.848,12.235-22.848,24.81v31.392A10.442,10.442,0,0,1,226.872,390.5h0a10.443,10.443,0,0,1-10.413-10.412V348.693C216.46,324.733,233.623,305.019,260.3,305.019Z" transform="translate(1767.415 -368.73)" fill="#47ae73"/>
      <path id="Path_1667" data-name="Path 1667" d="M155.085,305.019a50.455,50.455,0,0,0-7.177.5,8.926,8.926,0,0,0-7.327,11.38h0a10.345,10.345,0,0,0,11.364,7.193,25.376,25.376,0,0,1,3.311-.212c13.935,0,22.848,12.235,22.848,24.81v31.392A10.442,10.442,0,0,0,188.516,390.5h0a10.443,10.443,0,0,0,10.413-10.412V348.693C198.927,324.733,181.765,305.019,155.085,305.019Z" transform="translate(1731.643 -368.73)" fill="#ffa600"/>
    </g>
  </g>
</svg>
