<svg xmlns="http://www.w3.org/2000/svg" xmlns:xlink="http://www.w3.org/1999/xlink" width="120" height="90" viewBox="0 0 120 90">
  <defs>
    <clipPath id="clip-University_Partnerships">
      <rect width="120" height="90"/>
    </clipPath>
  </defs>
  <g id="University_Partnerships" data-name="University Partnerships" clip-path="url(#clip-University_Partnerships)">
    <g id="Group_670" data-name="Group 670" transform="translate(-718 -2875)">
      <path id="Path_1680" data-name="Path 1680" d="M46.593,433.553v12.7H36.662a2.365,2.365,0,0,0-2.364,2.366v5.765a2.365,2.365,0,0,0,2.364,2.366h9.931v12.7a10.1,10.1,0,0,0,10.1,10.094H69.476v10.377a2.345,2.345,0,0,0,2.344,2.346h5.628a2.345,2.345,0,0,0,2.346-2.346V479.539H92.581a10.094,10.094,0,0,0,10.094-10.094V455.81a3.522,3.522,0,0,1-1.113.194H92.233a3.563,3.563,0,0,1-3.562-3.564V448.7a3.563,3.563,0,0,1,3.562-3.564h9.329a3.523,3.523,0,0,1,1.113.2V433.553a10.094,10.094,0,0,0-10.094-10.1H56.689A10.1,10.1,0,0,0,46.593,433.553Z" transform="translate(687.702 2468.618)" fill="none" stroke="#284b9b" stroke-linecap="round" stroke-linejoin="round" stroke-width="4"/>
      <path id="Path_1681" data-name="Path 1681" d="M122.776,429.112h-12.7v-9.931a2.368,2.368,0,0,0-2.366-2.366h-5.767a2.367,2.367,0,0,0-2.366,2.366v9.931h-12.7a10.1,10.1,0,0,0-10.1,10.1v12.787H66.411a2.346,2.346,0,0,0-2.346,2.344v5.628a2.346,2.346,0,0,0,2.346,2.346H76.788V475.1a10.1,10.1,0,0,0,10.1,10.094h6.23a3.52,3.52,0,0,1-.194-1.113v-9.329a3.563,3.563,0,0,1,3.564-3.564h16.694a3.564,3.564,0,0,1,3.564,3.564v9.329a3.52,3.52,0,0,1-.194,1.113h6.23A10.094,10.094,0,0,0,132.869,475.1V439.207A10.1,10.1,0,0,0,122.776,429.112Z" transform="translate(696.935 2463.964)" fill="#fff" stroke="#284b9b" stroke-linecap="round" stroke-linejoin="round" stroke-width="4"/>
    </g>
  </g>
</svg>
